<?xml version="1.0"?>
<svg xmlns="http://www.w3.org/2000/svg" id="color" enable-background="new 0 0 24 24" height="512px" viewBox="0 0 24 24" width="512px" class=""><g><g fill="#9e9e9e"><path d="m22.25 19.25h-3c-.414 0-.75-.336-.75-.75s.336-.75.75-.75h3c.414 0 .75.336.75.75s-.336.75-.75.75z" data-original="#9E9E9E" class="" style="fill:#CCCCCC" data-old_color="#9E9E9E"/><path d="m16.25 19.25h-3c-.414 0-.75-.336-.75-.75s.336-.75.75-.75h3c.414 0 .75.336.75.75s-.336.75-.75.75z" data-original="#9E9E9E" class="" style="fill:#CCCCCC" data-old_color="#9E9E9E"/><path d="m10.25 19.25h-3c-.414 0-.75-.336-.75-.75s.336-.75.75-.75h3c.414 0 .75.336.75.75s-.336.75-.75.75z" data-original="#9E9E9E" class="" style="fill:#CCCCCC" data-old_color="#9E9E9E"/><path d="m4.25 19.25h-3c-.414 0-.75-.336-.75-.75s.336-.75.75-.75h3c.414 0 .75.336.75.75s-.336.75-.75.75z" data-original="#9E9E9E" class="" style="fill:#CCCCCC" data-old_color="#9E9E9E"/></g><path d="m9.25 14.25c-.256 0-.512-.098-.707-.293-.391-.391-.391-1.023 0-1.414l5.5-5.5c.391-.391 1.023-.391 1.414 0s.391 1.023 0 1.414l-5.5 5.5c-.195.195-.451.293-.707.293z" fill="#f44336" data-original="#F44336" class="active-path" data-old_color="#f44336" style="fill:#FAA7A1"/><path d="m14.75 14.25c-.256 0-.512-.098-.707-.293l-5.5-5.5c-.391-.391-.391-1.023 0-1.414s1.023-.391 1.414 0l5.5 5.5c.391.391.391 1.023 0 1.414-.195.195-.451.293-.707.293z" fill="#f44336" data-original="#F44336" class="active-path" data-old_color="#f44336" style="fill:#FAA7A1"/></g> </svg>
